# xmcd
#
# Track frame offsets: 
#        150
#        16659
#        34003
#        46985
#        64600
#        87204
#        102588
#        130300
#        154532
#        169966
#        180526
#        198008
#        203413
#        223741
#
# Disc length: 3211 seconds
#
# Revision: 0
# Processed by: cddbd v1.5.2PL0 Copyright (c) Steve Scherf et al.
# Submitted via: ExactAudioCopyFreeDBPlugin 1.0
#
DISCID=b10c890e
DTITLE=Honeysocks - The Chronicles of Darnia
DYEAR=2004
DGENRE=Country
TTITLE0=Dingoes Ate My Band
TTITLE1=Baby Doll
TTITLE2=Comfortably Numb
TTITLE3=Laura (Casey's Girl)
TTITLE4=Mr. James Brown
TTITLE5=Never Tear Us Apart
TTITLE6=Stained Glass
TTITLE7=Moonshiner
TTITLE8=Away
TTITLE9=The Thin Ice
TTITLE10=Sympathy For The Weevil
TTITLE11=Come Again
TTITLE12=You Can Call Me Al
TTITLE13=De La Sierra
EXTD=
EXTT0=
EXTT1=
EXTT2=
EXTT3=
EXTT4=
EXTT5=
EXTT6=
EXTT7=
EXTT8=
EXTT9=
EXTT10=
EXTT11=
EXTT12=
EXTT13=
PLAYORDER=
